<svg width="195" height="40" viewBox="0 0 195 40" fill="none" xmlns="http://www.w3.org/2000/svg">
<g clip-path="url(#clip0_1_1470)">
<path d="M39.2895 2.40504C34.6507 -0.426624 28.5439 0.248021 23.0973 3.59167C17.6677 0.248021 11.5571 -0.426624 6.92398 2.40504C-0.404987 6.87987 -1.29604 18.4043 4.93566 28.1469C9.52903 35.3295 16.7123 39.5382 23.1067 39.4606C29.5011 39.5382 36.6844 35.3295 41.2778 28.1469C47.5019 18.4043 46.6184 6.87987 39.2895 2.40504ZM8.30502 26.0897C7.02006 24.0995 6.05057 21.9309 5.42943 19.6575C4.87757 17.684 4.66657 15.6344 4.80512 13.593C5.08322 9.99248 6.58345 7.18854 9.0277 5.69693C11.4719 4.20532 14.7032 4.11475 18.1444 5.44925C18.6609 5.65072 19.1717 5.88361 19.6787 6.14053C17.7664 7.8441 16.1036 9.79708 14.7373 11.9443C10.9536 17.859 9.79957 24.441 11.1201 29.6884C10.0671 28.5787 9.12456 27.3737 8.30502 26.0897ZM40.7859 19.6556C40.1639 21.9288 39.1945 24.0973 37.9103 26.0878C37.0901 27.3737 36.1476 28.581 35.0953 29.6939C36.2758 24.9899 35.4736 19.2268 32.5791 13.8222C32.4856 13.6422 32.3185 13.5093 32.1191 13.4565C31.9197 13.4037 31.7067 13.4358 31.533 13.545L22.5089 19.053C22.3427 19.1544 22.2245 19.3162 22.1805 19.5027C22.1365 19.6893 22.1703 19.8852 22.2743 20.0475L23.5986 22.1157C23.702 22.278 23.8672 22.3934 24.0578 22.4364C24.2485 22.4794 24.4488 22.4465 24.6145 22.3449L30.4641 18.7739C30.6532 19.3284 30.8424 19.883 30.9843 20.4375C31.5361 22.4084 31.7477 24.4555 31.6105 26.4945C31.3324 30.0932 29.8322 32.8971 27.3879 34.3906C26.1272 35.1437 24.6826 35.5522 23.2051 35.5735C23.1729 35.5735 23.1389 35.5735 23.1067 35.5735H23.0178C21.5402 35.5527 20.0955 35.1441 18.835 34.3906C16.3888 32.8971 14.8886 30.0932 14.6105 26.4945C14.4728 24.4532 14.6838 22.4037 15.2348 20.4301C16.5027 15.864 19.1235 11.7658 22.7681 8.65058C24.3398 7.30275 26.1299 6.21964 28.0652 5.44556C31.497 4.11105 34.7339 4.19977 37.1801 5.69323C39.6262 7.18669 41.1245 9.98878 41.4026 13.5893C41.543 15.6309 41.3346 17.681 40.7859 19.6556ZM87.3666 15.3545C82.6219 15.3545 78.7872 18.9736 78.7872 23.5778C78.7872 28.1506 82.6219 31.7105 87.3666 31.7105C92.1435 31.7105 95.9783 28.1561 95.9783 23.5778C95.9783 18.9754 92.1492 15.3564 87.3666 15.3564V15.3545ZM87.3666 27.4112C85.1797 27.4112 83.5149 25.683 83.5149 23.5464C83.5149 21.4097 85.1797 19.6556 87.3666 19.6556C89.5858 19.6556 91.2506 21.4152 91.2506 23.5519C91.2506 25.6886 89.5858 27.4186 87.3666 27.4186V27.4112ZM106.677 9.03861H97.9458C97.7552 9.03516 97.5714 9.10769 97.4368 9.23955C97.3021 9.37142 97.2284 9.55121 97.2326 9.7374V30.5331C97.2188 30.7256 97.288 30.9149 97.4235 31.0553C97.559 31.1957 97.7483 31.2744 97.9458 31.2725H106.677C113.663 31.2725 118.518 26.7329 118.518 20.1288C118.518 13.484 113.663 9.03861 106.677 9.03861ZM106.883 26.8808H102.106V13.4193H106.883C110.75 13.4193 113.415 16.2454 113.415 20.1195C113.415 23.929 110.75 26.8808 106.883 26.8808ZM135.896 15.8018H132.614C132.237 15.8309 131.944 16.132 131.933 16.5005V17.4524C131.185 16.2454 129.496 15.3564 127.392 15.3564C123.298 15.3564 119.464 18.4985 119.464 23.5168C119.464 28.5073 123.264 31.7068 127.36 31.7068C129.471 31.7068 131.195 30.8196 131.942 29.6126V30.5959C131.944 30.9629 132.248 31.2602 132.623 31.2632H135.905C136.088 31.2673 136.264 31.1983 136.393 31.0723C136.522 30.9462 136.593 30.7741 136.588 30.5959V16.5005C136.594 16.3174 136.524 16.1399 136.393 16.0083C136.263 15.8767 136.083 15.8022 135.896 15.8018ZM128.261 27.4464C126.087 27.4464 124.454 25.8143 124.454 23.5501C124.454 21.2858 126.087 19.6556 128.261 19.6556C130.434 19.6556 132.067 21.284 132.067 23.5482C132.067 25.8124 130.436 27.4445 128.261 27.4445V27.4464ZM154.321 9.03873H151.038C150.853 9.03326 150.673 9.10085 150.538 9.22631C150.404 9.35177 150.327 9.5246 150.325 9.70598V17.3895C149.568 16.2454 147.854 15.3564 145.711 15.3564C141.647 15.3564 137.879 18.4985 137.879 23.5168C137.879 28.5073 141.679 31.7068 145.775 31.7068C147.886 31.7068 149.479 30.8196 150.357 29.6126V30.5959C150.358 30.9633 150.662 31.2612 151.038 31.2632H154.321C154.503 31.2678 154.68 31.199 154.809 31.0728C154.938 30.9467 155.008 30.7743 155.003 30.5959V9.70968C155.009 9.53071 154.939 9.35731 154.81 9.23034C154.681 9.10338 154.504 9.03406 154.321 9.03873ZM146.685 27.4852C144.521 27.4852 142.901 25.8365 142.901 23.5482C142.901 21.26 144.527 19.6112 146.685 19.6112C148.844 19.6112 150.469 21.26 150.469 23.5482C150.469 25.8365 148.851 27.4852 146.685 27.4852ZM172.741 9.03873H169.465C169.279 9.03327 169.099 9.10079 168.964 9.2262C168.83 9.35161 168.753 9.52443 168.75 9.70598V17.3895C168.002 16.2454 166.279 15.3564 164.135 15.3564C160.072 15.3564 156.303 18.4985 156.303 23.5168C156.303 28.5073 160.106 31.7068 164.2 31.7068C166.313 31.7068 167.904 30.8196 168.782 29.6126V30.5959C168.784 30.9636 169.088 31.2612 169.465 31.2632H172.741C172.924 31.2678 173.1 31.199 173.229 31.0728C173.358 30.9465 173.428 30.7741 173.422 30.5959V9.70968C173.429 9.53088 173.359 9.35747 173.23 9.23044C173.101 9.10341 172.924 9.03404 172.741 9.03873ZM165.106 27.4852C162.94 27.4852 161.322 25.8365 161.322 23.5482C161.322 21.26 162.947 19.6112 165.106 19.6112C167.264 19.6112 168.89 21.26 168.89 23.5482C168.89 25.8365 167.276 27.4852 165.112 27.4852H165.106ZM190.714 16.8831L185.816 33.2945C184.87 36.2149 182.76 37.9616 179.478 37.9616C177.985 37.9616 176.627 37.664 175.562 37.0688C174.942 36.7232 174.427 36.4071 174.427 35.9007C174.427 35.5865 174.531 35.4238 174.72 35.1299L175.693 33.7067C175.967 33.3093 176.169 33.1799 176.464 33.1799C176.698 33.1855 176.925 33.2624 177.111 33.3999C177.723 33.7862 178.29 34.1189 179.155 34.1189C180.165 34.1189 180.937 33.8028 181.353 32.6273L181.773 31.265H179.79C179.302 31.265 179.034 30.9804 178.912 30.5978L174.529 16.8831C174.366 16.3434 174.516 15.8037 175.327 15.8037H178.78C179.202 15.8037 179.497 15.9441 179.682 16.5338L182.919 27.5776L185.946 16.5338C186.043 16.153 186.304 15.8037 186.824 15.8037H190.099C190.744 15.8018 190.939 16.2454 190.714 16.8831ZM77.55 21.7646V30.5312C77.553 30.7243 77.4759 30.9104 77.3361 31.0469C77.1964 31.1835 77.0059 31.2588 76.8083 31.2558H74.0992C73.9014 31.2593 73.7107 31.1841 73.5708 31.0475C73.431 30.9108 73.354 30.7245 73.3576 30.5312V28.2301C71.6379 30.352 68.6469 31.6883 65.2644 31.6883C58.9116 31.6883 53.9474 27.0194 53.9474 20.3728C53.9474 13.4655 59.307 8.70418 66.0778 8.70418C71.0761 8.70418 75.0716 10.8039 76.8462 15.0274C76.8959 15.139 76.9235 15.2587 76.9275 15.3804C76.9275 15.58 76.7932 15.7316 76.36 15.8776L73.1968 17.0679C73.006 17.1452 72.7922 17.1485 72.599 17.0772C72.4296 16.9795 72.2969 16.831 72.2206 16.6539C71.0855 14.5449 69.065 13.1125 65.9549 13.1125C61.9215 13.1125 59.0326 16.19 59.0326 20.1805C59.0326 24.0491 61.492 27.2301 66.0703 27.2301C68.4786 27.2301 70.3988 26.1211 71.2936 24.903H68.437C68.2393 24.9061 68.0489 24.8307 67.9091 24.6942C67.7694 24.5576 67.6923 24.3716 67.6954 24.1785V21.796C67.6923 21.6029 67.7694 21.4169 67.9091 21.2803C68.0489 21.1438 68.2393 21.0684 68.437 21.0714H76.8083C77.0023 21.0618 77.1917 21.1306 77.3321 21.2618C77.4724 21.393 77.5512 21.5748 77.55 21.7646ZM190.803 12.5561V12.3436C190.802 12.3287 190.808 12.3142 190.818 12.3029C190.829 12.2934 190.843 12.2882 190.858 12.2881H192.24C192.255 12.2876 192.27 12.293 192.28 12.3029C192.29 12.3142 192.296 12.3287 192.295 12.3436V12.5561C192.295 12.5704 192.29 12.5842 192.28 12.5949C192.27 12.6049 192.255 12.6102 192.24 12.6097H191.735V13.9424C191.734 13.9726 191.71 13.9969 191.679 13.9978H191.418C191.403 13.9978 191.389 13.9917 191.38 13.9812C191.369 13.9711 191.363 13.9571 191.363 13.9424V12.6097H190.858C190.843 12.6109 190.828 12.6056 190.817 12.5953C190.807 12.585 190.802 12.5707 190.803 12.5561ZM193.22 12.3362L193.599 13.192L193.977 12.3362C193.983 12.321 193.994 12.3081 194.007 12.2992C194.023 12.2912 194.041 12.2874 194.059 12.2881H194.497C194.512 12.2871 194.526 12.2921 194.537 12.302C194.547 12.3119 194.553 12.3256 194.552 12.3399V13.9442C194.553 13.9584 194.548 13.9724 194.538 13.9826C194.528 13.9929 194.514 13.9984 194.499 13.9978H194.253C194.239 13.9983 194.224 13.993 194.214 13.983C194.203 13.973 194.197 13.9587 194.199 13.9442V12.7336L193.792 13.6134C193.786 13.63 193.775 13.6447 193.761 13.6559C193.746 13.6643 193.728 13.6682 193.71 13.667H193.51C193.493 13.6679 193.476 13.6641 193.461 13.6559C193.446 13.6452 193.436 13.6303 193.43 13.6134L193.026 12.7336V13.9442C193.025 13.9585 193.02 13.9723 193.01 13.983C193 13.9921 192.987 13.9973 192.973 13.9978H192.721C192.707 13.998 192.694 13.9926 192.685 13.983C192.674 13.973 192.669 13.9587 192.67 13.9442V12.3399C192.669 12.3256 192.675 12.3119 192.685 12.302C192.696 12.2921 192.71 12.2871 192.725 12.2881H193.15C193.168 12.2877 193.184 12.2915 193.2 12.2992C193.21 12.3094 193.217 12.3222 193.22 12.3362Z" fill="#8A8A8A"/>
</g>
<defs>
<clipPath id="clip0_1_1470">
<rect width="194" height="39" fill="white" transform="translate(0.546143 0.626465)"/>
</clipPath>
</defs>
</svg>
