<svg width="28" height="29" viewBox="0 0 28 29" fill="none" xmlns="http://www.w3.org/2000/svg">
<path d="M9.91707 22.5844H9.33374C4.66707 22.5844 2.33374 21.4177 2.33374 15.5844V9.75104C2.33374 5.08437 4.66707 2.75104 9.33374 2.75104H18.6671C23.3337 2.75104 25.6671 5.08437 25.6671 9.75104V15.5844C25.6671 20.251 23.3337 22.5844 18.6671 22.5844H18.0837C17.7221 22.5844 17.3721 22.7594 17.1504 23.0511L15.4004 25.3844C14.6304 26.4111 13.3704 26.4111 12.6004 25.3844L10.8504 23.0511C10.6637 22.7944 10.2437 22.5844 9.91707 22.5844Z" stroke="#12141D" stroke-width="1.5" stroke-miterlimit="10" stroke-linecap="round" stroke-linejoin="round"/>
<path d="M9.33333 10.6027L7 12.9361L9.33333 15.2694" stroke="#12141D" stroke-width="1.5" stroke-miterlimit="10" stroke-linecap="round" stroke-linejoin="round"/>
<path d="M18.6663 10.6027L20.9996 12.9361L18.6663 15.2694" stroke="#12141D" stroke-width="1.5" stroke-miterlimit="10" stroke-linecap="round" stroke-linejoin="round"/>
<path d="M15.1671 10.2179L12.8337 15.6546" stroke="#12141D" stroke-width="1.5" stroke-miterlimit="10" stroke-linecap="round" stroke-linejoin="round"/>
</svg>
