<svg width="28" height="29" viewBox="0 0 28 29" fill="none" xmlns="http://www.w3.org/2000/svg">
<path d="M13.965 26.1195C20.4083 26.1195 25.6317 20.8961 25.6317 14.4528C25.6317 8.00948 20.4083 2.78613 13.965 2.78613C7.52168 2.78613 2.29834 8.00948 2.29834 14.4528C2.29834 20.8961 7.52168 26.1195 13.965 26.1195Z" stroke="#12141D" stroke-width="1.5" stroke-linecap="round" stroke-linejoin="round"/>
<path d="M14 19.7031C16.8995 19.7031 19.25 17.3526 19.25 14.4531C19.25 11.5536 16.8995 9.20312 14 9.20312C11.1005 9.20312 8.75 11.5536 8.75 14.4531C8.75 17.3526 11.1005 19.7031 14 19.7031Z" stroke="#12141D" stroke-width="1.5" stroke-linecap="round" stroke-linejoin="round"/>
<path d="M5.7168 6.20508L9.8468 10.3234" stroke="#12141D" stroke-width="1.5" stroke-linecap="round" stroke-linejoin="round"/>
<path d="M5.71667 22.7015L9.84667 18.5831" stroke="#12141D" stroke-width="1.5" stroke-linecap="round" stroke-linejoin="round"/>
<path d="M22.225 22.7015L18.095 18.5831" stroke="#12141D" stroke-width="1.5" stroke-linecap="round" stroke-linejoin="round"/>
<path d="M22.2252 6.20508L18.0952 10.3234" stroke="#12141D" stroke-width="1.5" stroke-linecap="round" stroke-linejoin="round"/>
</svg>
