<svg width="23" height="23" viewBox="0 0 23 23" fill="none" xmlns="http://www.w3.org/2000/svg">
<path d="M21.9445 11.1401C19.4448 11.1372 17.0482 10.1429 15.2806 8.37536C13.5131 6.60777 12.5188 4.21123 12.5159 1.7115C12.5159 1.50311 12.4332 1.30326 12.2858 1.15591C12.1385 1.00856 11.9386 0.925781 11.7302 0.925781C11.5218 0.925781 11.322 1.00856 11.1746 1.15591C11.0273 1.30326 10.9445 1.50311 10.9445 1.7115C10.9417 4.21123 9.94738 6.60777 8.1798 8.37536C6.41222 10.1429 4.01568 11.1372 1.51594 11.1401C1.30755 11.1401 1.1077 11.2228 0.960355 11.3702C0.813005 11.5175 0.730225 11.7174 0.730225 11.9258C0.730225 12.1342 0.813005 12.334 0.960355 12.4814C1.1077 12.6287 1.30755 12.7115 1.51594 12.7115C4.01568 12.7143 6.41222 13.7086 8.1798 15.4762C9.94738 17.2438 10.9417 19.6403 10.9445 22.1401C10.9445 22.3485 11.0273 22.5483 11.1746 22.6957C11.322 22.843 11.5218 22.9258 11.7302 22.9258C11.9386 22.9258 12.1385 22.843 12.2858 22.6957C12.4332 22.5483 12.5159 22.3485 12.5159 22.1401C12.5188 19.6403 13.5131 17.2438 15.2806 15.4762C17.0482 13.7086 19.4448 12.7143 21.9445 12.7115C22.1529 12.7115 22.3527 12.6287 22.5001 12.4814C22.6474 12.334 22.7302 12.1342 22.7302 11.9258C22.7302 11.7174 22.6474 11.5175 22.5001 11.3702C22.3527 11.2228 22.1529 11.1401 21.9445 11.1401ZM11.7302 18.0808C11.1746 16.6915 10.3425 15.4296 9.28448 14.3715C8.22644 13.3135 6.96448 12.4814 5.57517 11.9258C6.96448 11.3702 8.22644 10.5381 9.28448 9.48004C10.3425 8.42199 11.1746 7.16004 11.7302 5.77073C12.2859 7.16004 13.1179 8.42199 14.176 9.48004C15.234 10.5381 16.496 11.3702 17.8853 11.9258C16.496 12.4814 15.234 13.3135 14.176 14.3715C13.1179 15.4296 12.2859 16.6915 11.7302 18.0808Z" fill="#6F4BE5"/>
</svg>
