<svg width="22" height="23" viewBox="0 0 22 23" fill="none" xmlns="http://www.w3.org/2000/svg">
<path d="M2.75 1.9375H1.375V19.8125C1.375 20.1772 1.51987 20.5269 1.77773 20.7848C2.03559 21.0426 2.38533 21.1875 2.75 21.1875H20.625V19.8125H2.75V1.9375Z" fill="#12B74A"/>
<path d="M20.625 6.75H15.8125V8.125H18.2806L13.0625 13.3431L10.1131 10.3869C10.0492 10.3224 9.97317 10.2713 9.8894 10.2364C9.80562 10.2015 9.71576 10.1835 9.625 10.1835C9.53424 10.1835 9.44438 10.2015 9.3606 10.2364C9.27683 10.2713 9.20079 10.3224 9.13688 10.3869L4.125 15.4056L5.09437 16.375L9.625 11.8444L12.5744 14.8006C12.6383 14.8651 12.7143 14.9162 12.7981 14.9511C12.8819 14.986 12.9717 15.004 13.0625 15.004C13.1533 15.004 13.2431 14.986 13.3269 14.9511C13.4107 14.9162 13.4867 14.8651 13.5506 14.8006L19.25 9.09437V11.5625H20.625V6.75Z" fill="#12B74A"/>
</svg>
