<svg width="28" height="29" viewBox="0 0 28 29" fill="none" xmlns="http://www.w3.org/2000/svg">
<path d="M9.33334 17.6618C9.11168 17.6618 8.89001 17.5802 8.71501 17.4052L6.38168 15.0719C6.04335 14.7335 6.04335 14.1735 6.38168 13.8351L8.71501 11.5018C9.05335 11.1635 9.61334 11.1635 9.95168 11.5018C10.29 11.8401 10.29 12.4002 9.95168 12.7385L8.23668 14.4535L9.95168 16.1685C10.29 16.5068 10.29 17.0669 9.95168 17.4052C9.77668 17.5802 9.55501 17.6618 9.33334 17.6618Z" fill="#12141D"/>
<path d="M18.6665 17.6618C18.4448 17.6618 18.2232 17.5802 18.0482 17.4052C17.7099 17.0669 17.7099 16.5068 18.0482 16.1685L19.7632 14.4535L18.0482 12.7385C17.7099 12.4002 17.7099 11.8401 18.0482 11.5018C18.3865 11.1635 18.9465 11.1635 19.2848 11.5018L21.6182 13.8351C21.9565 14.1735 21.9565 14.7335 21.6182 15.0719L19.2848 17.4052C19.1098 17.5802 18.8882 17.6618 18.6665 17.6618Z" fill="#12141D"/>
<path d="M14.0002 26.9945C7.08183 26.9945 1.4585 21.3711 1.4585 14.4528C1.4585 7.53447 7.08183 1.91113 14.0002 1.91113C20.9185 1.91113 26.5418 7.53447 26.5418 14.4528C26.5418 21.3711 20.9185 26.9945 14.0002 26.9945ZM14.0002 3.66113C8.05016 3.66113 3.2085 8.5028 3.2085 14.4528C3.2085 20.4028 8.05016 25.2445 14.0002 25.2445C19.9502 25.2445 24.7918 20.4028 24.7918 14.4528C24.7918 8.5028 19.9502 3.66113 14.0002 3.66113Z" fill="#12141D"/>
<path d="M12.8336 18.0461C12.717 18.0461 12.6003 18.0228 12.4953 17.9761C12.052 17.7895 11.842 17.2761 12.0403 16.8211L14.3736 11.3728C14.5603 10.9294 15.0736 10.7194 15.517 10.9177C15.9603 11.1044 16.1703 11.6178 15.972 12.0728L13.6386 17.5211C13.4986 17.8478 13.172 18.0461 12.8336 18.0461Z" fill="#12141D"/>
</svg>
