<svg width="28" height="29" viewBox="0 0 28 29" fill="none" xmlns="http://www.w3.org/2000/svg">
<path d="M11.1998 23.7868H16.7998C21.4665 23.7868 23.3332 21.9201 23.3332 17.2534V11.6535C23.3332 6.98678 21.4665 5.12012 16.7998 5.12012H11.1998C6.53317 5.12012 4.6665 6.98678 4.6665 11.6535V17.2534C4.6665 21.9201 6.53317 23.7868 11.1998 23.7868Z" stroke="#12141D" stroke-width="1.5" stroke-linecap="round" stroke-linejoin="round"/>
<path d="M12.2498 20.2868H15.7498C18.6665 20.2868 19.8332 19.1201 19.8332 16.2035V12.7035C19.8332 9.78678 18.6665 8.62012 15.7498 8.62012H12.2498C9.33317 8.62012 8.1665 9.78678 8.1665 12.7035V16.2035C8.1665 19.1201 9.33317 20.2868 12.2498 20.2868Z" stroke="#12141D" stroke-width="1.5" stroke-linecap="round" stroke-linejoin="round"/>
<path d="M9.34521 5.11947V2.78613" stroke="#12141D" stroke-width="1.5" stroke-linecap="round" stroke-linejoin="round"/>
<path d="M14 5.11947V2.78613" stroke="#12141D" stroke-width="1.5" stroke-linecap="round" stroke-linejoin="round"/>
<path d="M18.6665 5.11947V2.78613" stroke="#12141D" stroke-width="1.5" stroke-linecap="round" stroke-linejoin="round"/>
<path d="M23.3335 9.78613H25.6668" stroke="#12141D" stroke-width="1.5" stroke-linecap="round" stroke-linejoin="round"/>
<path d="M23.3334 14.4531H25.6667" stroke="#12141D" stroke-width="1.5" stroke-linecap="round" stroke-linejoin="round"/>
<path d="M23.3335 19.1201H25.6668" stroke="#12141D" stroke-width="1.5" stroke-linecap="round" stroke-linejoin="round"/>
<path d="M18.6665 23.7861V26.1195" stroke="#12141D" stroke-width="1.5" stroke-linecap="round" stroke-linejoin="round"/>
<path d="M14.0117 23.7861V26.1195" stroke="#12141D" stroke-width="1.5" stroke-linecap="round" stroke-linejoin="round"/>
<path d="M9.34521 23.7861V26.1195" stroke="#12141D" stroke-width="1.5" stroke-linecap="round" stroke-linejoin="round"/>
<path d="M2.3335 9.78613H4.66683" stroke="#12141D" stroke-width="1.5" stroke-linecap="round" stroke-linejoin="round"/>
<path d="M2.33337 14.4531H4.66671" stroke="#12141D" stroke-width="1.5" stroke-linecap="round" stroke-linejoin="round"/>
<path d="M2.3335 19.1201H4.66683" stroke="#12141D" stroke-width="1.5" stroke-linecap="round" stroke-linejoin="round"/>
</svg>
