<svg width="28" height="29" viewBox="0 0 28 29" fill="none" xmlns="http://www.w3.org/2000/svg">
<g clip-path="url(#clip0_1_1184)">
<path d="M24.9375 4.12812C24.6366 3.93349 24.2926 3.81574 23.9356 3.78523C23.5786 3.75472 23.2195 3.81237 22.89 3.95312L12.0925 8.20562C11.8369 8.30966 11.5635 8.36315 11.2875 8.36312H4.375C3.79484 8.36312 3.23844 8.59359 2.8282 9.00383C2.41797 9.41406 2.1875 9.97046 2.1875 10.5506V10.7256H0V15.9756H2.1875V16.2031C2.20121 16.7741 2.43771 17.3171 2.84647 17.7161C3.25523 18.115 3.80382 18.3383 4.375 18.3381L7 23.9031C7.17775 24.2779 7.45759 24.5949 7.80738 24.8178C8.15718 25.0406 8.56274 25.1603 8.9775 25.1631H10.08C10.6571 25.1585 11.209 24.926 11.6155 24.5163C12.022 24.1065 12.25 23.5528 12.25 22.9756V18.5481L22.89 22.8006C23.1517 22.9048 23.4308 22.9582 23.7125 22.9581C24.1495 22.9511 24.575 22.8173 24.9375 22.5731C25.2253 22.3788 25.4628 22.1187 25.6301 21.8144C25.7975 21.5101 25.89 21.1703 25.9 20.8231V5.93062C25.8984 5.57453 25.8099 5.2242 25.6421 4.91008C25.4744 4.59596 25.2325 4.32754 24.9375 4.12812ZM10.0625 10.5506V16.2031H4.375V10.5506H10.0625ZM10.0625 22.9756H8.96L6.8075 18.3381H10.0625V22.9756ZM12.8975 16.4656C12.6897 16.3594 12.4731 16.2716 12.25 16.2031V10.4281C12.4709 10.3825 12.6875 10.3181 12.8975 10.2356L23.7125 5.93062V20.7706L12.8975 16.4656ZM25.9525 11.1631V15.5381C26.5327 15.5381 27.0891 15.3077 27.4993 14.8974C27.9095 14.4872 28.14 13.9308 28.14 13.3506C28.14 12.7705 27.9095 12.2141 27.4993 11.8038C27.0891 11.3936 26.5327 11.1631 25.9525 11.1631Z" fill="#12141D"/>
</g>
<defs>
<clipPath id="clip0_1_1184">
<rect width="28" height="28" fill="white" transform="translate(0 0.453125)"/>
</clipPath>
</defs>
</svg>
