<svg width="100" height="31" viewBox="0 0 100 31" fill="none" xmlns="http://www.w3.org/2000/svg">
<path d="M21.0279 1.00391L18.1982 1.99847L18.1826 9.60173C18.167 17.3137 18.193 18.6561 18.3591 19.6778C18.7849 22.2974 19.9064 24.5365 21.7548 26.4604C22.7049 27.4496 23.5876 28.1072 24.8285 28.7539C26.2823 29.5093 28.2397 30.0039 29.7662 30.0039H30.0621V26.9713V23.9333L29.5585 23.9006C28.8628 23.8572 28.1255 23.6452 27.4349 23.292C25.5554 22.3354 24.2989 20.4985 24.0445 18.3463C24.0133 18.0528 23.9874 16.8409 23.9874 15.3409V12.83H27.0248H30.0621V10.0039V7.17782H27.0248H23.9874V3.59086C23.9874 0.753908 23.9718 0.00390816 23.9251 0.00934219C23.8887 0.00934219 22.5855 0.46043 21.0279 1.00391Z" fill="#FAFAFA"/>
<path d="M90.9657 1.00322L88.136 1.99779V10.4978C88.136 18.4108 88.1412 19.0358 88.2294 19.5413C88.6863 22.2369 89.6884 24.3184 91.4226 26.2097C92.4766 27.3511 93.4319 28.0902 94.7248 28.7532C96.1993 29.5087 97.6479 29.8945 99.3509 29.9869L100 30.0195V26.9761V23.9326L99.4704 23.9C99.1744 23.8782 98.759 23.8184 98.541 23.7587C95.9605 23.063 94.1744 20.8837 93.9252 18.1119C93.8992 17.7913 93.8733 16.4706 93.8733 15.1771V12.8293H96.9366H100V10.0032V7.17714H96.9366H93.8733V3.59018C93.8733 1.61735 93.8577 0.00322342 93.8369 0.00865936C93.811 0.00865936 92.5233 0.459745 90.9657 1.00322Z" fill="#FAFAFA"/>
<path d="M6.69263 6.69319C4.91693 6.86167 3.20353 7.80732 2.03011 9.27471C-0.965732 13.0301 0.207684 18.6497 4.42887 20.7367C5.46729 21.253 6.30841 21.416 7.91796 21.416C9.1433 21.416 9.35618 21.4486 9.61059 21.6715C10.2181 22.2095 9.99481 23.1986 9.21599 23.4215C9.0758 23.4595 7.60125 23.4812 4.50675 23.4812H0V26.6334V29.791L5.05192 29.7693C9.57425 29.753 10.135 29.7421 10.4621 29.6606C12.0976 29.2475 13.4372 28.3997 14.4029 27.1715C15.7944 25.3943 16.324 23.166 15.8878 20.9323C15.3946 18.3997 13.6085 16.291 11.2513 15.4649C10.4102 15.1715 9.94289 15.1062 8.46314 15.0736C7.09761 15.041 6.98338 15.0247 6.72897 14.791C6.56802 14.6443 6.43821 14.3128 6.43821 14.0519C6.43821 13.6008 6.74455 13.166 7.15472 13.0465C7.27933 13.0138 8.76947 12.9921 11.3863 12.9921H15.4206V9.81276V6.63341L11.3084 6.63885C9.04465 6.64428 6.96781 6.67145 6.69263 6.69319Z" fill="#FAFAFA"/>
<path d="M42.6789 6.69361C40.7993 6.91643 38.8056 7.68274 37.2376 8.77513C35.3632 10.0849 33.9302 11.7697 32.9333 13.8349C32.4868 14.7588 32.2427 15.4382 32.0091 16.3838C31.6457 17.873 31.656 17.6773 31.6353 23.9273L31.6145 29.5686H34.5273H37.4349V24.3077C37.4349 19.8403 37.4452 18.9762 37.5127 18.536C37.7568 16.9762 38.5823 15.4382 39.7142 14.4219C40.8928 13.3675 42.1389 12.8295 43.7329 12.6936L44.1327 12.6556V9.64469V6.63382L43.6031 6.63926C43.3071 6.64469 42.8918 6.66643 42.6789 6.69361Z" fill="#FAFAFA"/>
<path d="M53.3231 7.00842C51.1061 7.20407 49.0864 8.06277 47.3055 9.55733C44.2629 12.1117 42.7572 16.4215 43.4841 20.5084C43.7385 21.9323 44.1591 23.1117 44.8496 24.3236C45.9607 26.2639 47.4145 27.666 49.4342 28.7312C50.7686 29.4323 52.6793 29.8943 54.2629 29.8943C55.618 29.8943 57.3055 29.5302 58.5256 28.9649C58.7904 28.8454 59.0396 28.7312 59.076 28.7149C59.1227 28.6932 59.1383 28.7965 59.1383 29.128V29.5682H62.0199H64.9015V18.2639V6.9595H62.0199H59.1383V7.55733C59.1383 7.88342 59.1279 8.15516 59.1175 8.15516C59.1071 8.15516 58.9358 8.07907 58.7385 7.98668C57.1134 7.22581 55.0781 6.85624 53.3231 7.00842ZM55.0936 13.128C56.1321 13.3182 57.0459 13.8073 57.8351 14.5899C58.5879 15.3454 59.1487 16.4758 59.3252 17.6117C59.6315 19.5628 58.8216 21.6117 57.2951 22.7475C56.9005 23.0465 56.1476 23.4378 55.7115 23.5791C54.8756 23.8454 53.8112 23.8725 52.9856 23.6497C52.482 23.5139 51.7032 23.128 51.2774 22.8073C50.5713 22.2747 49.86 21.3562 49.5329 20.5573C49.2058 19.753 49.1435 19.4052 49.1487 18.4269C49.1487 17.3997 49.2266 17.0139 49.5796 16.2258C49.8548 15.6062 50.1092 15.2149 50.5609 14.7204C51.7395 13.4269 53.4529 12.8236 55.0936 13.128Z" fill="#FAFAFA"/>
<path d="M76.4799 7.02011C74.2577 7.2212 72.1445 8.15054 70.3688 9.69402C69.3148 10.6125 68.1622 12.1777 67.6014 13.4549C66.8745 15.0962 66.563 16.6071 66.563 18.4712C66.563 21.4875 67.5599 24.1342 69.5277 26.3299C72.6014 29.7592 77.5599 30.8353 81.7447 28.9766C83.0583 28.3951 84.1954 27.5853 85.2286 26.5038C85.7894 25.9168 86.5007 25.0201 86.5007 24.8951C86.5007 24.8462 81.8122 21.4712 81.7395 21.4712C81.7188 21.4712 81.6461 21.5527 81.5786 21.656C81.3553 21.9984 80.7271 22.6125 80.2909 22.9168C78.8267 23.9332 76.9264 24.0908 75.3584 23.319C74.3356 22.8245 73.5204 22.0255 72.9597 20.9766C72.508 20.1397 72.2691 18.8625 72.373 17.8897C72.6326 15.5799 74.0915 13.819 76.2618 13.1995C76.8537 13.031 78.0375 13.031 78.6814 13.1995C79.211 13.3353 79.9534 13.6886 80.4051 14.0147C80.7478 14.2592 81.2515 14.7484 81.5266 15.1071L81.7084 15.3462L84.0344 13.6397C85.3169 12.6995 86.3865 11.9168 86.4176 11.8951C86.5007 11.8353 85.9088 11.069 85.2286 10.3571C83.51 8.55272 81.402 7.43859 79.0552 7.0962C78.3387 6.99294 77.1653 6.95489 76.4799 7.02011Z" fill="#FAFAFA"/>
</svg>
