<svg width="120" height="38" viewBox="0 0 120 38" fill="none" xmlns="http://www.w3.org/2000/svg">
<path d="M31.0279 5.52539L28.1982 6.51996L28.1826 14.1232C28.167 21.8352 28.193 23.1776 28.3591 24.1993C28.7849 26.8189 29.9064 29.058 31.7548 30.9819C32.7049 31.971 33.5876 32.6287 34.8285 33.2754C36.2823 34.0308 38.2397 34.5254 39.7662 34.5254H40.0621V31.4928V28.4547L39.5585 28.4221C38.8628 28.3787 38.1255 28.1667 37.4349 27.8134C35.5554 26.8569 34.2989 25.02 34.0445 22.8678C34.0133 22.5743 33.9874 21.3623 33.9874 19.8623V17.3515H37.0248H40.0621V14.5254V11.6993H37.0248H33.9874V8.11235C33.9874 5.27539 33.9718 4.52539 33.9251 4.53083C33.8887 4.53083 32.5855 4.98191 31.0279 5.52539Z" fill="#FAFAFA"/>
<path d="M100.966 5.52471L98.136 6.51927V15.0193C98.136 22.9323 98.1412 23.5573 98.2294 24.0628C98.6863 26.7584 99.6884 28.8399 101.423 30.7312C102.477 31.8725 103.432 32.6117 104.725 33.2747C106.199 34.0301 107.648 34.416 109.351 34.5084L110 34.541V31.4975V28.4541L109.47 28.4214C109.174 28.3997 108.759 28.3399 108.541 28.2801C105.96 27.5845 104.174 25.4051 103.925 22.6334C103.899 22.3128 103.873 20.9921 103.873 19.6986V17.3508H106.937H110V14.5247V11.6986H106.937H103.873V8.11167C103.873 6.13884 103.858 4.52471 103.837 4.53014C103.811 4.53014 102.523 4.98123 100.966 5.52471Z" fill="#FAFAFA"/>
<path d="M16.6926 11.2147C14.9169 11.3832 13.2035 12.3288 12.0301 13.7962C9.03427 17.5516 10.2077 23.1712 14.4289 25.2582C15.4673 25.7745 16.3084 25.9375 17.918 25.9375C19.1433 25.9375 19.3562 25.9701 19.6106 26.1929C20.2181 26.731 19.9948 27.7201 19.216 27.9429C19.0758 27.981 17.6012 28.0027 14.5067 28.0027H10V31.1549V34.3125L15.0519 34.2908C19.5742 34.2745 20.135 34.2636 20.4621 34.1821C22.0976 33.769 23.4372 32.9212 24.4029 31.6929C25.7944 29.9158 26.324 27.6875 25.8878 25.4538C25.3946 22.9212 23.6085 20.8125 21.2513 19.9864C20.4102 19.6929 19.9429 19.6277 18.4631 19.5951C17.0976 19.5625 16.9834 19.5462 16.729 19.3125C16.568 19.1658 16.4382 18.8342 16.4382 18.5734C16.4382 18.1223 16.7445 17.6875 17.1547 17.5679C17.2793 17.5353 18.7695 17.5136 21.3863 17.5136H25.4206V14.3342V11.1549L21.3084 11.1603C19.0447 11.1658 16.9678 11.1929 16.6926 11.2147Z" fill="#FAFAFA"/>
<path d="M52.6789 11.2151C50.7993 11.4379 48.8056 12.2042 47.2376 13.2966C45.3632 14.6064 43.9302 16.2912 42.9333 18.3564C42.4868 19.2803 42.2427 19.9597 42.0091 20.9053C41.6457 22.3944 41.656 22.1988 41.6353 28.4488L41.6145 34.0901H44.5273H47.4349V28.8292C47.4349 24.3618 47.4452 23.4977 47.5127 23.0575C47.7568 21.4977 48.5823 19.9597 49.7142 18.9433C50.8928 17.889 52.1389 17.351 53.7329 17.2151L54.1327 17.177V14.1662V11.1553L53.6031 11.1607C53.3071 11.1662 52.8918 11.1879 52.6789 11.2151Z" fill="#FAFAFA"/>
<path d="M63.3231 11.5299C61.1061 11.7256 59.0864 12.5842 57.3055 14.0788C54.2629 16.6332 52.7572 20.9429 53.4841 25.0299C53.7385 26.4538 54.1591 27.6332 54.8496 28.8451C55.9607 30.7853 57.4145 32.1875 59.4342 33.2527C60.7686 33.9538 62.6793 34.4158 64.2629 34.4158C65.618 34.4158 67.3055 34.0516 68.5256 33.4864C68.7904 33.3669 69.0396 33.2527 69.076 33.2364C69.1227 33.2147 69.1383 33.3179 69.1383 33.6495V34.0897H72.0199H74.9015V22.7853V11.481H72.0199H69.1383V12.0788C69.1383 12.4049 69.1279 12.6766 69.1175 12.6766C69.1071 12.6766 68.9358 12.6006 68.7385 12.5082C67.1134 11.7473 65.0781 11.3777 63.3231 11.5299ZM65.0936 17.6495C66.1321 17.8397 67.0459 18.3288 67.8351 19.1114C68.5879 19.8669 69.1487 20.9973 69.3252 22.1332C69.6315 24.0842 68.8216 26.1332 67.2951 27.269C66.9005 27.5679 66.1476 27.9592 65.7115 28.1006C64.8756 28.3669 63.8112 28.394 62.9856 28.1712C62.482 28.0353 61.7032 27.6495 61.2774 27.3288C60.5713 26.7962 59.86 25.8777 59.5329 25.0788C59.2058 24.2745 59.1435 23.9266 59.1487 22.9484C59.1487 21.9212 59.2266 21.5353 59.5796 20.7473C59.8548 20.1277 60.1092 19.7364 60.5609 19.2419C61.7395 17.9484 63.4529 17.3451 65.0936 17.6495Z" fill="#FAFAFA"/>
<path d="M86.4799 11.5406C84.2577 11.7417 82.1445 12.6711 80.3688 14.2145C79.3148 15.133 78.1622 16.6982 77.6014 17.9754C76.8745 19.6167 76.563 21.1276 76.563 22.9917C76.563 26.008 77.5599 28.6547 79.5277 30.8504C82.6014 34.2797 87.5599 35.3558 91.7447 33.4971C93.0583 32.9156 94.1954 32.1058 95.2286 31.0243C95.7894 30.4374 96.5007 29.5406 96.5007 29.4156C96.5007 29.3667 91.8122 25.9917 91.7395 25.9917C91.7188 25.9917 91.6461 26.0732 91.5786 26.1765C91.3553 26.5189 90.7271 27.133 90.2909 27.4374C88.8267 28.4537 86.9264 28.6113 85.3584 27.8395C84.3356 27.345 83.5204 26.5461 82.9597 25.4971C82.508 24.6602 82.2691 23.383 82.373 22.4102C82.6326 20.1004 84.0915 18.3395 86.2618 17.72C86.8537 17.5515 88.0375 17.5515 88.6814 17.72C89.211 17.8558 89.9534 18.2091 90.4051 18.5352C90.7478 18.7797 91.2515 19.2689 91.5266 19.6276L91.7084 19.8667L94.0344 18.1602C95.3169 17.22 96.3865 16.4374 96.4176 16.4156C96.5007 16.3558 95.9088 15.5895 95.2286 14.8776C93.51 13.0732 91.402 11.9591 89.0552 11.6167C88.3387 11.5134 87.1653 11.4754 86.4799 11.5406Z" fill="#FAFAFA"/>
</svg>
