<svg width="21" height="21" viewBox="0 0 21 21" fill="none" xmlns="http://www.w3.org/2000/svg">
<path d="M10.0659 20.9258C8.68259 20.9258 7.38259 20.6631 6.16592 20.1378C4.94925 19.6131 3.89092 18.9008 2.99092 18.0008C2.09092 17.1008 1.37858 16.0424 0.853918 14.8258C0.328585 13.6091 0.065918 12.3091 0.065918 10.9258C0.065918 9.54245 0.328585 8.24245 0.853918 7.02578C1.37858 5.80912 2.09092 4.75078 2.99092 3.85078C3.89092 2.95078 4.94925 2.23811 6.16592 1.71278C7.38259 1.18811 8.68259 0.925781 10.0659 0.925781C11.4493 0.925781 12.7493 1.18811 13.9659 1.71278C15.1826 2.23811 16.2409 2.95078 17.1409 3.85078C18.0409 4.75078 18.7533 5.80912 19.2779 7.02578C19.8033 8.24245 20.0659 9.54245 20.0659 10.9258V18.9258C20.0659 19.4758 19.8703 19.9468 19.4789 20.3388C19.0869 20.7301 18.6159 20.9258 18.0659 20.9258H10.0659ZM10.0659 18.9258C12.2993 18.9258 14.1909 18.1508 15.7409 16.6008C17.2909 15.0508 18.0659 13.1591 18.0659 10.9258C18.0659 8.69245 17.2909 6.80078 15.7409 5.25078C14.1909 3.70078 12.2993 2.92578 10.0659 2.92578C7.83259 2.92578 5.94092 3.70078 4.39092 5.25078C2.84092 6.80078 2.06592 8.69245 2.06592 10.9258C2.06592 11.3091 2.09092 11.6841 2.14092 12.0508C2.19092 12.4174 2.26592 12.7758 2.36592 13.1258L6.06592 9.42578L9.36592 12.2008L12.6409 8.92578H11.0659V6.92578H16.0659V11.9258H14.0659V10.3508L9.46592 14.9258L6.19092 12.1258L3.24092 15.0758C3.94092 16.2258 4.88692 17.1551 6.07892 17.8638C7.27025 18.5718 8.59925 18.9258 10.0659 18.9258ZM17.5659 19.4258C17.8493 19.4258 18.0866 19.3298 18.2779 19.1378C18.4699 18.9464 18.5659 18.7091 18.5659 18.4258C18.5659 18.1425 18.4699 17.9051 18.2779 17.7138C18.0866 17.5218 17.8493 17.4258 17.5659 17.4258C17.2826 17.4258 17.0453 17.5218 16.8539 17.7138C16.6619 17.9051 16.5659 18.1425 16.5659 18.4258C16.5659 18.7091 16.6619 18.9464 16.8539 19.1378C17.0453 19.3298 17.2826 19.4258 17.5659 19.4258Z" fill="#008EFF"/>
</svg>
